<?xml version="1.0" encoding="utf-8"?>
<!-- Generator: Adobe Illustrator 15.0.2, SVG Export Plug-In . SVG Version: 6.00 Build 0)  -->
<!DOCTYPE svg PUBLIC "-//W3C//DTD SVG 1.1//EN" "http://www.w3.org/Graphics/SVG/1.1/DTD/svg11.dtd">
<svg version="1.1" id="Layer_1" xmlns="http://www.w3.org/2000/svg" xmlns:xlink="http://www.w3.org/1999/xlink" x="0px" y="0px"
	 width="240px" height="120px" viewBox="0 0 240 120" enable-background="new 0 0 240 120" xml:space="preserve">
<circle fill="#00639E" cx="58.75" cy="60" r="57.5"/>
<g>
	<path fill="#00639E" d="M132.253,82.172h0.598v10.994h-0.598v-2.898c-1.102,2.116-2.854,3.175-5.256,3.175
		c-1.683,0-3.103-0.556-4.258-1.668c-1.155-1.111-1.733-2.473-1.733-4.082c0-1.61,0.578-2.979,1.733-4.105
		c1.155-1.127,2.551-1.69,4.189-1.69c1.5,0,2.808,0.468,3.925,1.402c0.536,0.445,1.002,1.035,1.4,1.771V82.172z M126.94,82.448
		c-1.497,0-2.76,0.508-3.791,1.522c-1.031,1.016-1.545,2.256-1.545,3.722c0,1.45,0.522,2.679,1.568,3.687s2.316,1.511,3.813,1.511
		c1.481,0,2.729-0.5,3.745-1.499c1.015-1,1.523-2.226,1.523-3.676s-0.52-2.69-1.558-3.721
		C129.657,82.963,128.405,82.448,126.94,82.448z"/>
	<path fill="#00639E" d="M134.322,82.172h0.598v2.093c0.321-0.689,0.891-1.257,1.709-1.701c0.818-0.445,1.717-0.667,2.696-0.667
		c1.529,0,2.814,0.521,3.854,1.563c0.826,0.828,1.239,2.039,1.239,3.634v6.072h-0.598v-6.059c0-1.408-0.413-2.536-1.239-3.386
		c-0.826-0.849-1.919-1.273-3.281-1.273c-1.285,0-2.355,0.413-3.211,1.239c-0.78,0.75-1.17,1.806-1.17,3.167v6.312h-0.598V82.172z"
		/>
	<path fill="#00639E" d="M156.379,77.825h0.598v15.341h-0.598v-2.99c-0.337,0.66-0.727,1.204-1.17,1.633
		c-1.148,1.089-2.541,1.634-4.178,1.634c-1.668,0-3.08-0.56-4.235-1.68c-1.155-1.119-1.733-2.491-1.733-4.116
		c0-1.641,0.57-3.01,1.71-4.106c1.14-1.096,2.567-1.644,4.281-1.644c1.745,0,3.213,0.613,4.407,1.84
		c0.321,0.337,0.627,0.781,0.918,1.334V77.825z M150.998,82.448c-1.481,0-2.741,0.5-3.779,1.5c-1.039,1-1.557,2.225-1.557,3.675
		c0,1.451,0.519,2.691,1.557,3.722c1.038,1.03,2.298,1.545,3.779,1.545c1.496,0,2.767-0.511,3.813-1.534
		c1.045-1.022,1.569-2.259,1.569-3.709s-0.52-2.68-1.558-3.687C153.784,82.952,152.509,82.448,150.998,82.448z"/>
	<path fill="#00639E" d="M174.93,92.89c1.025,0,1.962-0.288,2.811-0.867c0.85-0.578,1.473-1.354,1.871-2.329h0.688
		c-0.368,1.104-1.05,2.005-2.047,2.702c-0.997,0.698-2.093,1.047-3.289,1.047c-1.595,0-2.96-0.563-4.095-1.69
		s-1.701-2.48-1.701-4.06c0-1.61,0.563-2.979,1.69-4.105s2.487-1.69,4.083-1.69c0.889,0,1.751,0.218,2.587,0.655
		c0.835,0.437,1.521,1.031,2.059,1.782c0.185,0.261,0.429,0.729,0.735,1.403h-0.688c-0.429-0.944-1.003-1.698-1.722-2.262
		c-0.872-0.685-1.858-1.027-2.96-1.027c-1.454,0-2.682,0.511-3.684,1.534c-1.003,1.022-1.504,2.274-1.504,3.755
		c0,1.42,0.506,2.634,1.516,3.642S173.506,92.89,174.93,92.89z"/>
	<path fill="#00639E" d="M187.039,93.442c-1.564,0-2.91-0.563-4.037-1.69s-1.69-2.473-1.69-4.037c0-1.625,0.556-3.001,1.667-4.128
		s2.473-1.69,4.083-1.69c1.625,0,3.001,0.56,4.128,1.679s1.691,2.477,1.691,4.071s-0.572,2.959-1.714,4.094
		C190.024,92.875,188.648,93.442,187.039,93.442z M187.107,82.448c-1.451,0-2.68,0.508-3.688,1.522
		c-1.007,1.016-1.511,2.248-1.511,3.698s0.504,2.684,1.511,3.698c1.008,1.016,2.229,1.522,3.664,1.522
		c1.436,0,2.66-0.511,3.676-1.534c1.015-1.022,1.522-2.251,1.522-3.687c0-1.45-0.504-2.683-1.511-3.698
		C189.764,82.956,188.542,82.448,187.107,82.448z"/>
	<path fill="#00639E" d="M194.743,82.172h0.599v2.093c0.32-0.689,0.891-1.257,1.709-1.701c0.818-0.445,1.717-0.667,2.695-0.667
		c1.529,0,2.814,0.521,3.855,1.563c0.826,0.828,1.238,2.039,1.238,3.634v6.072h-0.598v-6.059c0-1.408-0.412-2.536-1.238-3.386
		c-0.826-0.849-1.92-1.273-3.281-1.273c-1.285,0-2.355,0.413-3.211,1.239c-0.78,0.75-1.17,1.806-1.17,3.167v6.312h-0.599V82.172z"/>
	<path fill="#00639E" d="M207.877,77.825h0.598v4.347h2.807v0.552h-2.807v10.442h-0.598V82.724h-2.415v-0.552h2.415V77.825z"/>
	<path fill="#00639E" d="M212.361,93.166V82.172h0.598v1.979c0.686-1.365,1.975-2.116,3.864-2.254v0.62
		c-0.991,0.077-1.779,0.33-2.366,0.76c-0.587,0.429-0.983,0.912-1.189,1.448c-0.205,0.537-0.309,1.365-0.309,2.484v5.957H212.361z"
		/>
	<path fill="#00639E" d="M221.838,93.442c-1.564,0-2.91-0.563-4.037-1.69s-1.69-2.473-1.69-4.037c0-1.625,0.556-3.001,1.667-4.128
		s2.473-1.69,4.083-1.69c1.625,0,3.001,0.56,4.128,1.679s1.691,2.477,1.691,4.071s-0.572,2.959-1.714,4.094
		C224.823,92.875,223.447,93.442,221.838,93.442z M221.906,82.448c-1.451,0-2.68,0.508-3.688,1.522
		c-1.007,1.016-1.511,2.248-1.511,3.698s0.504,2.684,1.511,3.698c1.008,1.016,2.229,1.522,3.664,1.522
		c1.436,0,2.66-0.511,3.676-1.534c1.015-1.022,1.522-2.251,1.522-3.687c0-1.45-0.504-2.683-1.511-3.698
		C224.562,82.956,223.341,82.448,221.906,82.448z"/>
	<path fill="#00639E" d="M229.542,77.825h0.599v15.341h-0.599V77.825z"/>
	<path fill="#00639E" d="M235.407,93.442c-1.027,0-1.878-0.342-2.553-1.023c-0.675-0.683-1.021-1.553-1.035-2.611h0.644
		c0.016,0.929,0.295,1.675,0.84,2.238c0.545,0.562,1.262,0.844,2.15,0.844c0.782,0,1.453-0.264,2.013-0.791
		c0.56-0.528,0.839-1.159,0.839-1.894c0-1.163-0.682-1.943-2.047-2.342l-1.426-0.413c-1.487-0.428-2.23-1.3-2.23-2.616
		c0-0.826,0.283-1.522,0.851-2.089c0.567-0.565,1.257-0.849,2.07-0.849c0.812,0,1.476,0.253,1.989,0.759s0.816,1.211,0.908,2.116
		h-0.644c-0.185-1.549-0.958-2.323-2.323-2.323c-0.644,0-1.181,0.218-1.609,0.654c-0.43,0.436-0.645,0.982-0.645,1.641
		c0,0.612,0.164,1.071,0.494,1.377c0.33,0.307,0.963,0.582,1.898,0.826c2.207,0.582,3.312,1.653,3.312,3.214
		c0,0.902-0.345,1.676-1.035,2.318S236.357,93.442,235.407,93.442z"/>
</g>
<g>
	<path fill="#00639E" d="M128.512,76.275c-2.1,0-3.838-0.696-5.217-2.091c-1.379-1.394-2.084-3.173-2.115-5.334h1.316
		c0.031,1.897,0.603,3.421,1.715,4.572c1.112,1.15,2.577,1.727,4.395,1.727c1.598,0,2.968-0.539,4.112-1.618
		c1.144-1.079,1.716-2.369,1.716-3.87c0-2.376-1.395-3.971-4.183-4.785l-2.914-0.844c-3.04-0.875-4.559-2.658-4.559-5.347
		c0-1.688,0.58-3.111,1.739-4.268c1.159-1.157,2.569-1.735,4.23-1.735c1.66,0,3.015,0.517,4.065,1.551
		c1.049,1.034,1.668,2.476,1.856,4.324h-1.316c-0.376-3.165-1.958-4.747-4.747-4.747c-1.316,0-2.413,0.446-3.29,1.336
		C124.439,56.038,124,57.156,124,58.5c0,1.25,0.336,2.188,1.01,2.814c0.673,0.625,1.966,1.188,3.877,1.688
		c4.512,1.188,6.768,3.377,6.768,6.566c0,1.845-0.705,3.424-2.115,4.738C132.131,75.619,130.455,76.275,128.512,76.275z"/>
	<path fill="#00639E" d="M148.158,76.275c-3.196,0-5.945-1.15-8.249-3.454c-2.303-2.303-3.455-5.052-3.455-8.249
		c0-3.321,1.135-6.133,3.408-8.437c2.271-2.303,5.052-3.454,8.342-3.454c3.321,0,6.134,1.144,8.437,3.431
		c2.304,2.288,3.454,5.061,3.454,8.319s-1.167,6.047-3.501,8.366C154.26,75.117,151.448,76.275,148.158,76.275z M148.299,53.81
		c-2.964,0-5.475,1.038-7.534,3.112c-2.059,2.074-3.088,4.593-3.088,7.557c0,2.964,1.029,5.483,3.088,7.557
		c2.059,2.075,4.555,3.112,7.487,3.112c2.933,0,5.436-1.045,7.511-3.136c2.074-2.09,3.111-4.601,3.111-7.534
		c0-2.963-1.029-5.482-3.088-7.557C153.726,54.848,151.231,53.81,148.299,53.81z"/>
	<path fill="#00639E" d="M181.574,53.246h1.223v22.466h-1.223v-4.418c-0.875,1.315-1.766,2.303-2.672,2.961
		c-1.845,1.348-4.018,2.021-6.518,2.021c-3.281,0-5.877-1.018-7.783-3.055c-0.938-1.002-1.578-2.083-1.922-3.243
		c-0.344-1.159-0.516-2.789-0.516-4.888V53.246h1.222v11.818c0,1.908,0.155,3.377,0.468,4.409c0.311,1.032,0.903,2.001,1.776,2.907
		c1.745,1.845,3.99,2.768,6.733,2.768c3.18,0,5.658-1.125,7.436-3.377c0.842-1.063,1.371-2.188,1.589-3.377
		c0.124-0.688,0.187-1.938,0.187-3.752V53.246z"/>
	<path fill="#00639E" d="M186.51,75.712V53.246h1.222v4.042c1.401-2.789,4.033-4.324,7.896-4.606v1.269
		c-2.024,0.157-3.637,0.674-4.836,1.551c-1.199,0.877-2.009,1.865-2.429,2.961c-0.421,1.097-0.631,2.789-0.631,5.076v12.173H186.51z
		"/>
	<path fill="#00639E" d="M204.299,75.148c2.095,0,4.01-0.591,5.744-1.773c1.736-1.182,3.01-2.769,3.822-4.76h1.408
		c-0.752,2.256-2.146,4.097-4.184,5.522c-2.037,1.427-4.277,2.139-6.721,2.139c-3.26,0-6.048-1.15-8.366-3.454
		c-2.319-2.303-3.478-5.068-3.478-8.295c0-3.29,1.15-6.086,3.454-8.39c2.304-2.303,5.083-3.454,8.343-3.454
		c1.816,0,3.579,0.446,5.287,1.339c1.707,0.893,3.109,2.107,4.207,3.643c0.375,0.533,0.877,1.488,1.504,2.867h-1.407
		c-0.876-1.928-2.048-3.469-3.517-4.621c-1.783-1.399-3.799-2.1-6.051-2.1c-2.971,0-5.479,1.045-7.527,3.135
		c-2.048,2.09-3.071,4.649-3.071,7.674c0,2.901,1.032,5.381,3.095,7.441C198.906,74.119,201.391,75.148,204.299,75.148z"/>
	<path fill="#00639E" d="M238.49,64.054v0.613h-21.479c0.188,3.043,1.237,5.551,3.148,7.523c1.911,1.972,4.246,2.958,7.004,2.958
		c1.848,0,3.571-0.528,5.17-1.586c1.598-1.057,2.835-2.486,3.713-4.29h1.362c-0.878,2.131-2.249,3.831-4.112,5.1
		c-1.865,1.269-3.909,1.902-6.133,1.902c-3.103,0-5.789-1.189-8.061-3.571c-2.273-2.381-3.408-5.186-3.408-8.413
		c0-3.196,1.111-5.93,3.337-8.202c2.225-2.271,4.903-3.407,8.037-3.407c3.07,0,5.741,1.132,8.014,3.397
		C237.354,58.344,238.49,61.002,238.49,64.054z M217.012,63.539h20.162c-0.219-2.713-1.309-5.012-3.266-6.899
		c-1.959-1.887-4.238-2.83-6.839-2.83c-2.632,0-4.888,0.912-6.769,2.736C218.422,58.371,217.324,60.701,217.012,63.539z"/>
</g>
<g>
	<path fill="#FFFFFF" stroke="#FFFFFF" stroke-miterlimit="10" d="M55.773,44.363h1.222v30.221h13.301v1.128H55.773V44.363z"/>
	<path fill="#FFFFFF" stroke="#FFFFFF" stroke-miterlimit="10" d="M73.351,44.363h1.222v3.854h-1.222V44.363z M73.351,53.246h1.222
		v22.466h-1.222V53.246z"/>
	<path fill="#FFFFFF" stroke="#FFFFFF" stroke-miterlimit="10" d="M77.251,45.491l0.047-1.128H95.44v1.128h-8.507v30.221h-1.222
		V45.491H77.251z"/>
	<path fill="#FFFFFF" stroke="#FFFFFF" stroke-miterlimit="10" d="M98.542,75.712V44.363h17.155v1.128H99.763v13.865h15.933v1.128
		H99.763v14.1h15.933v1.128H98.542z"/>
</g>
</svg>
